<svg viewBox="0 0 1600 280" xmlns="http://www.w3.org/2000/svg" preserveAspectRatio="xMidYMid slice">
  <defs>
    <linearGradient id="sky" x1="0%" y1="0%" x2="0%" y2="100%">
      <stop offset="0%"   stop-color="#140a33"/>
      <stop offset="28%"  stop-color="#3a1f68"/>
      <stop offset="52%"  stop-color="#8a3f78"/>
      <stop offset="74%"  stop-color="#e97847"/>
      <stop offset="100%" stop-color="#ffe2a0"/>
    </linearGradient>

    <radialGradient id="sunGlow" cx="53%" cy="30%" r="55%">
      <stop offset="0%"  stop-color="#fff6d8" stop-opacity="0.95"/>
      <stop offset="18%" stop-color="#ffdf9a" stop-opacity="0.6"/>
      <stop offset="45%" stop-color="#ff9d5c" stop-opacity="0.28"/>
      <stop offset="100%" stop-color="#ff9d5c" stop-opacity="0"/>
    </radialGradient>

    <radialGradient id="sunCore" cx="42%" cy="38%" r="55%">
      <stop offset="0%"  stop-color="#fffdf2"/>
      <stop offset="50%" stop-color="#ffefb0"/>
      <stop offset="100%" stop-color="#ffbf5e"/>
    </radialGradient>

    <linearGradient id="cloudLit" x1="0%" y1="0%" x2="0%" y2="100%">
      <stop offset="0%"   stop-color="#fffaf0"/>
      <stop offset="50%"  stop-color="#ffe4c4"/>
      <stop offset="100%" stop-color="#e99a78"/>
    </linearGradient>

    <linearGradient id="farRidge" x1="0%" y1="0%" x2="0%" y2="100%">
      <stop offset="0%" stop-color="#b6a0d8"/>
      <stop offset="100%" stop-color="#8a72b8"/>
    </linearGradient>
    <linearGradient id="midRidge" x1="0%" y1="0%" x2="0%" y2="100%">
      <stop offset="0%" stop-color="#704f98"/>
      <stop offset="100%" stop-color="#4f3574"/>
    </linearGradient>
    <linearGradient id="nearRidge" x1="0%" y1="0%" x2="0%" y2="100%">
      <stop offset="0%" stop-color="#31204f"/>
      <stop offset="100%" stop-color="#170c2c"/>
    </linearGradient>

    <!-- Organic, painterly cloud edges: warp a smooth ellipse with fractal noise -->
    <filter id="cloudPaint" x="-60%" y="-140%" width="220%" height="380%">
      <feTurbulence type="fractalNoise" baseFrequency="0.018 0.05" numOctaves="3" seed="7" result="n"/>
      <feDisplacementMap in="SourceGraphic" in2="n" scale="22" xChannelSelector="R" yChannelSelector="G" result="warped"/>
      <feGaussianBlur in="warped" stdDeviation="1.6"/>
    </filter>

    <!-- Rocky, hand-painted texture for each mountain layer (different seed = different pattern) -->
    <filter id="rockFar" x="-5%" y="-5%" width="110%" height="110%">
      <feTurbulence type="fractalNoise" baseFrequency="0.01 0.028" numOctaves="4" seed="11" result="n"/>
      <feColorMatrix in="n" type="matrix"
        values="0 0 0 0 0  0 0 0 0 0  0 0 0 0 0  0.4 0.4 0.4 0 0" result="nAlpha"/>
      <feComposite in="nAlpha" in2="SourceGraphic" operator="in" result="masked"/>
      <feBlend in="SourceGraphic" in2="masked" mode="multiply"/>
    </filter>
    <filter id="rockMid" x="-5%" y="-5%" width="110%" height="110%">
      <feTurbulence type="fractalNoise" baseFrequency="0.012 0.032" numOctaves="4" seed="22" result="n"/>
      <feColorMatrix in="n" type="matrix"
        values="0 0 0 0 0  0 0 0 0 0  0 0 0 0 0  0.5 0.5 0.5 0 0" result="nAlpha"/>
      <feComposite in="nAlpha" in2="SourceGraphic" operator="in" result="masked"/>
      <feBlend in="SourceGraphic" in2="masked" mode="multiply"/>
    </filter>
    <filter id="rockNear" x="-5%" y="-5%" width="110%" height="110%">
      <feTurbulence type="fractalNoise" baseFrequency="0.015 0.04" numOctaves="4" seed="33" result="n"/>
      <feColorMatrix in="n" type="matrix"
        values="0 0 0 0 0  0 0 0 0 0  0 0 0 0 0  0.55 0.55 0.55 0 0" result="nAlpha"/>
      <feComposite in="nAlpha" in2="SourceGraphic" operator="in" result="masked"/>
      <feBlend in="SourceGraphic" in2="masked" mode="multiply"/>
    </filter>

    <filter id="softEdge" x="-40%" y="-40%" width="180%" height="180%">
      <feGaussianBlur stdDeviation="0.8"/>
    </filter>

  </defs>

  <rect width="1600" height="280" fill="url(#sky)"/>
  <rect width="1600" height="280" fill="url(#sunGlow)"/>

  <!-- Sun: kept near horizontal centre so it stays visible on narrow (mobile) crops too -->
  <circle cx="850" cy="82" r="42" fill="url(#sunCore)"/>

  <!-- Far mountain ridge (hazy) -->
  <polygon opacity="0.55" fill="url(#farRidge)" filter="url(#rockFar)"
    points="0,232 110,178 230,208 350,152 500,196 660,158 820,200 980,164 1140,204 1300,168 1460,206 1600,222 1600,280 0,280"/>

  <!-- Mid mountain ridge -->
  <polygon opacity="0.85" fill="url(#midRidge)" filter="url(#rockMid)"
    points="0,252 160,196 320,232 470,182 640,220 800,178 960,222 1120,184 1300,222 1470,196 1600,240 1600,280 0,280"/>

  <!-- Near mountain ridge (darkest, foreground); peaks near centre flank the sun -->
  <polygon fill="url(#nearRidge)" filter="url(#rockNear)"
    points="0,270 190,208 360,246 530,200 700,196 850,240 980,204 1150,242 1320,206 1480,244 1600,258 1600,280 0,280"/>

  <!-- Snow-cap highlights kissed by sunlight -->
  <g filter="url(#softEdge)">
    <polygon opacity="0.9"  fill="#ffe6c2" points="700,196 712,212 688,212"/>
    <polygon opacity="0.88" fill="#ffdca8" points="980,204 992,220 968,220"/>
    <polygon opacity="0.75" fill="#ffd8a0" points="190,208 202,224 178,224"/>
    <polygon opacity="0.75" fill="#ffd8a0" points="1320,206 1332,222 1308,222"/>
  </g>

  <!-- Painterly clouds: organically warped, softly shaded, warm-lit undersides -->
  <g filter="url(#cloudPaint)">
    <g>
      <ellipse cx="760" cy="50" rx="112" ry="30" fill="url(#cloudLit)"/>
      <ellipse cx="690" cy="38" rx="64" ry="24" fill="#fffdf7"/>
      <ellipse cx="840" cy="40" rx="60" ry="22" fill="#fffdf7"/>
    </g>
    <g>
      <ellipse cx="230" cy="70" rx="118" ry="32" fill="url(#cloudLit)"/>
      <ellipse cx="150" cy="56" rx="68" ry="25" fill="#fffdf7"/>
    </g>
    <g>
      <ellipse cx="1300" cy="60" rx="104" ry="27" fill="url(#cloudLit)"/>
      <ellipse cx="1230" cy="48" rx="57" ry="22" fill="#fffdf7"/>
    </g>
    <g opacity="0.6">
      <ellipse cx="1030" cy="130" rx="88" ry="15" fill="#ffcf9e"/>
    </g>
    <g opacity="0.55">
      <ellipse cx="480" cy="140" rx="82" ry="15" fill="#ffcf9e"/>
    </g>
  </g>

  <!-- The dragon and the tiny hero are NOT drawn here: this backdrop is cropped
       ("slice") on narrow viewports, which would cut them off. They live as
       separate overlay images positioned in CSS against the visible box. -->
</svg>
